<svg width="1920" height="371" viewBox="0 0 1920 371" fill="none" xmlns="http://www.w3.org/2000/svg">
<rect width="1920" height="371" fill="#EFF2FA"/>
<mask id="mask0_939_525" style="mask-type:alpha" maskUnits="userSpaceOnUse" x="0" y="51" width="1921" height="220">
<line x1="1167.03" y1="246.065" x2="1920.02" y2="251.322" stroke="black" stroke-width="5"/>
<line x1="1169.51" y1="172" x2="1169.51" y2="248" stroke="black" stroke-width="5"/>
<line y1="-2.5" x2="23.1948" y2="-2.5" transform="matrix(0.9916 -0.129338 0.12934 0.9916 1168.01 177)" stroke="black" stroke-width="5"/>
<line y1="-3" x2="45.793" y2="-3" transform="matrix(0.85166 0.524095 -0.5241 0.851657 1148.01 150)" stroke="black" stroke-width="6"/>
<line x1="1023.01" y1="147.513" x2="1151.61" y2="147.737" stroke="black" stroke-width="5"/>
<line y1="268.5" x2="879.007" y2="268.5" stroke="black" stroke-width="5"/>
<line y1="-2.5" x2="130.115" y2="-2.5" transform="matrix(0.991428 0.130652 -0.130654 0.991428 750.006 254)" stroke="black" stroke-width="5"/>
<line x1="752.256" y1="254" x2="752.256" y2="170.75" stroke="black" stroke-width="5"/>
<line y1="-2.5" x2="33.8378" y2="-2.5" transform="matrix(0.945687 -0.325078 0.325082 0.945686 723.005 186)" stroke="black" stroke-width="5"/>
<line y1="-2.75" x2="22.4722" y2="-2.75" transform="matrix(0.533996 -0.845487 0.845491 0.53399 726.005 185)" stroke="black" stroke-width="5.5"/>
<line y1="-2.625" x2="162.226" y2="-2.625" transform="matrix(0.949299 -0.314376 0.31438 0.949297 735.005 168)" stroke="black" stroke-width="5.25"/>
<line x1="886.382" y1="132" x2="886.382" y2="113" stroke="black" stroke-width="5.25"/>
<line y1="-2.675" x2="129.035" y2="-2.675" transform="matrix(0.953231 -0.302242 0.302246 0.95323 766.756 171)" stroke="black" stroke-width="5.35"/>
<line x1="767.63" y1="166.035" x2="766.63" y2="240.035" stroke="black" stroke-width="5.25"/>
<line y1="-2.625" x2="102.825" y2="-2.625" transform="matrix(-0.991976 -0.126427 0.126429 -0.991976 867.007 249)" stroke="black" stroke-width="5.25"/>
<line x1="864.382" y1="254" x2="864.382" y2="145" stroke="black" stroke-width="5.25"/>
<line y1="-2.85" x2="28.4605" y2="-2.85" transform="matrix(0.948684 -0.316226 0.31623 0.948682 863.006 150)" stroke="black" stroke-width="5.7"/>
<line x1="887.157" y1="271" x2="887.157" y2="141" stroke="black" stroke-width="5.7"/>
<line y1="-2.85" x2="100.285" y2="-2.85" transform="matrix(0.987191 -0.159545 0.159547 0.98719 890.007 271)" stroke="black" stroke-width="5.7"/>
<line x1="986.857" y1="169.034" x2="985.857" y2="254.034" stroke="black" stroke-width="5.7"/>
<line y1="-2.85" x2="34.9866" y2="-2.85" transform="matrix(0.971801 0.235803 -0.235806 0.9718 984.007 173.75)" stroke="black" stroke-width="5.7"/>
<line x1="1016.16" y1="251.962" x2="1017.16" y2="176.962" stroke="black" stroke-width="5.7"/>
<line x1="1019.01" y1="249.5" x2="1033.01" y2="249.5" stroke="black" stroke-width="5"/>
<line x1="1031.51" y1="172" x2="1031.51" y2="252" stroke="black" stroke-width="5"/>
<line y1="-2.5" x2="47.0744" y2="-2.5" transform="matrix(0.978148 0.20791 -0.207913 0.978147 1028.98 176.106)" stroke="black" stroke-width="5"/>
<line y1="-2.65" x2="15.7744" y2="-2.65" transform="matrix(0.53276 0.846266 -0.84627 0.532755 1063.01 171)" stroke="black" stroke-width="5.3"/>
<line y1="-2.65" x2="178.445" y2="-2.65" transform="matrix(0.958288 0.285803 -0.285807 0.958287 895.007 122)" stroke="black" stroke-width="5.3"/>
<line y1="-2.65" x2="24.5968" y2="-2.65" transform="matrix(0.447216 0.894426 -0.894428 0.447211 884.007 100)" stroke="black" stroke-width="5.3"/>
<line y1="-2.65" x2="139.517" y2="-2.65" transform="matrix(0.938954 -0.344042 0.344046 0.938953 886.007 104)" stroke="black" stroke-width="5.3"/>
<line y1="-2.65" x2="178.372" y2="-2.65" transform="matrix(-0.953073 -0.302739 0.302743 -0.953072 1185.01 105)" stroke="black" stroke-width="5.3"/>
<line y1="-3" x2="18.868" y2="-3" transform="matrix(-0.848 0.529996 -0.530002 -0.847996 1181.01 104)" stroke="black" stroke-width="6"/>
<line y1="-2.7" x2="34.1321" y2="-2.7" transform="matrix(0.99613 0.0878931 -0.0878945 0.99613 1134.01 116.25)" stroke="black" stroke-width="5.4"/>
<line x1="1137.21" y1="112.991" x2="1137.21" y2="140.491" stroke="black" stroke-width="5.4"/>
<line x1="1061.76" y1="137.75" x2="1134.56" y2="137.75" stroke="black" stroke-width="5.5"/>
<line x1="1064.26" y1="140" x2="1064.26" y2="104.5" stroke="black" stroke-width="5.5"/>
<line x1="1142.01" y1="106.5" x2="1062.01" y2="106.5" stroke="black" stroke-width="5"/>
<line y1="-2.7" x2="134.893" y2="-2.7" transform="matrix(-0.96373 -0.266877 0.266881 -0.963729 1142.01 103.5)" stroke="black" stroke-width="5.4"/>
<line y1="-2.7" x2="112.272" y2="-2.7" transform="matrix(0.944136 -0.329555 0.329559 0.944135 909.007 109)" stroke="black" stroke-width="5.4"/>
<line x1="909.707" y1="104" x2="909.707" y2="117" stroke="black" stroke-width="5.4"/>
<line y1="-2.75" x2="75.9605" y2="-2.75" transform="matrix(-0.961026 -0.276457 0.276461 -0.961025 981.007 134.5)" stroke="black" stroke-width="5.5"/>
<line x1="978.257" y1="138" x2="978.257" y2="96" stroke="black" stroke-width="5.5"/>
<line x1="1026.01" y1="98.75" x2="981.008" y2="98.75" stroke="black" stroke-width="5.5"/>
<line x1="1023.76" y1="95.9491" x2="1024.76" y2="149.949" stroke="black" stroke-width="5.5"/>
</mask>
<g mask="url(#mask0_939_525)">
<rect x="-54.0004" y="-162" width="2086.02" height="578" fill="#98A8D0"/>
</g>
<path d="M871.86 327.02C871.86 325.66 872.167 324.44 872.78 323.36C873.393 322.267 874.227 321.413 875.28 320.8C876.347 320.187 877.527 319.88 878.82 319.88C880.34 319.88 881.667 320.247 882.8 320.98C883.933 321.713 884.76 322.753 885.28 324.1H883.1C882.713 323.26 882.153 322.613 881.42 322.16C880.7 321.707 879.833 321.48 878.82 321.48C877.847 321.48 876.973 321.707 876.2 322.16C875.427 322.613 874.82 323.26 874.38 324.1C873.94 324.927 873.72 325.9 873.72 327.02C873.72 328.127 873.94 329.1 874.38 329.94C874.82 330.767 875.427 331.407 876.2 331.86C876.973 332.313 877.847 332.54 878.82 332.54C879.833 332.54 880.7 332.32 881.42 331.88C882.153 331.427 882.713 330.78 883.1 329.94H885.28C884.76 331.273 883.933 332.307 882.8 333.04C881.667 333.76 880.34 334.12 878.82 334.12C877.527 334.12 876.347 333.82 875.28 333.22C874.227 332.607 873.393 331.76 872.78 330.68C872.167 329.6 871.86 328.38 871.86 327.02ZM892.769 334.18C891.743 334.18 890.809 333.947 889.969 333.48C889.143 333.013 888.489 332.353 888.009 331.5C887.543 330.633 887.309 329.633 887.309 328.5C887.309 327.38 887.549 326.393 888.029 325.54C888.523 324.673 889.189 324.013 890.029 323.56C890.869 323.093 891.809 322.86 892.849 322.86C893.889 322.86 894.829 323.093 895.669 323.56C896.509 324.013 897.169 324.667 897.649 325.52C898.143 326.373 898.389 327.367 898.389 328.5C898.389 329.633 898.136 330.633 897.629 331.5C897.136 332.353 896.463 333.013 895.609 333.48C894.756 333.947 893.809 334.18 892.769 334.18ZM892.769 332.58C893.423 332.58 894.036 332.427 894.609 332.12C895.183 331.813 895.643 331.353 895.989 330.74C896.349 330.127 896.529 329.38 896.529 328.5C896.529 327.62 896.356 326.873 896.009 326.26C895.663 325.647 895.209 325.193 894.649 324.9C894.089 324.593 893.483 324.44 892.829 324.44C892.163 324.44 891.549 324.593 890.989 324.9C890.443 325.193 890.003 325.647 889.669 326.26C889.336 326.873 889.169 327.62 889.169 328.5C889.169 329.393 889.329 330.147 889.649 330.76C889.983 331.373 890.423 331.833 890.969 332.14C891.516 332.433 892.116 332.58 892.769 332.58ZM902.602 325.06C902.962 324.433 903.496 323.913 904.202 323.5C904.922 323.073 905.756 322.86 906.702 322.86C907.676 322.86 908.556 323.093 909.342 323.56C910.142 324.027 910.769 324.687 911.222 325.54C911.676 326.38 911.902 327.36 911.902 328.48C911.902 329.587 911.676 330.573 911.222 331.44C910.769 332.307 910.142 332.98 909.342 333.46C908.556 333.94 907.676 334.18 906.702 334.18C905.769 334.18 904.942 333.973 904.222 333.56C903.516 333.133 902.976 332.607 902.602 331.98V339.2H900.782V323.04H902.602V325.06ZM910.042 328.48C910.042 327.653 909.876 326.933 909.542 326.32C909.209 325.707 908.756 325.24 908.182 324.92C907.622 324.6 907.002 324.44 906.322 324.44C905.656 324.44 905.036 324.607 904.462 324.94C903.902 325.26 903.449 325.733 903.102 326.36C902.769 326.973 902.602 327.687 902.602 328.5C902.602 329.327 902.769 330.053 903.102 330.68C903.449 331.293 903.902 331.767 904.462 332.1C905.036 332.42 905.656 332.58 906.322 332.58C907.002 332.58 907.622 332.42 908.182 332.1C908.756 331.767 909.209 331.293 909.542 330.68C909.876 330.053 910.042 329.32 910.042 328.48ZM923.738 323.04L917.138 339.16H915.258L917.418 333.88L912.998 323.04H915.018L918.458 331.92L921.858 323.04H923.738ZM927.387 324.82C927.707 324.193 928.161 323.707 928.747 323.36C929.347 323.013 930.074 322.84 930.927 322.84V324.72H930.447C928.407 324.72 927.387 325.827 927.387 328.04V334H925.567V323.04H927.387V324.82ZM933.968 321.26C933.622 321.26 933.328 321.14 933.088 320.9C932.848 320.66 932.728 320.367 932.728 320.02C932.728 319.673 932.848 319.38 933.088 319.14C933.328 318.9 933.622 318.78 933.968 318.78C934.302 318.78 934.582 318.9 934.808 319.14C935.048 319.38 935.168 319.673 935.168 320.02C935.168 320.367 935.048 320.66 934.808 320.9C934.582 321.14 934.302 321.26 933.968 321.26ZM934.848 323.04V334H933.028V323.04H934.848ZM942.47 322.86C943.417 322.86 944.243 323.067 944.95 323.48C945.67 323.893 946.203 324.413 946.55 325.04V323.04H948.39V334.24C948.39 335.24 948.177 336.127 947.75 336.9C947.323 337.687 946.71 338.3 945.91 338.74C945.123 339.18 944.203 339.4 943.15 339.4C941.71 339.4 940.51 339.06 939.55 338.38C938.59 337.7 938.023 336.773 937.85 335.6H939.65C939.85 336.267 940.263 336.8 940.89 337.2C941.517 337.613 942.27 337.82 943.15 337.82C944.15 337.82 944.963 337.507 945.59 336.88C946.23 336.253 946.55 335.373 946.55 334.24V331.94C946.19 332.58 945.657 333.113 944.95 333.54C944.243 333.967 943.417 334.18 942.47 334.18C941.497 334.18 940.61 333.94 939.81 333.46C939.023 332.98 938.403 332.307 937.95 331.44C937.497 330.573 937.27 329.587 937.27 328.48C937.27 327.36 937.497 326.38 937.95 325.54C938.403 324.687 939.023 324.027 939.81 323.56C940.61 323.093 941.497 322.86 942.47 322.86ZM946.55 328.5C946.55 327.673 946.383 326.953 946.05 326.34C945.717 325.727 945.263 325.26 944.69 324.94C944.13 324.607 943.51 324.44 942.83 324.44C942.15 324.44 941.53 324.6 940.97 324.92C940.41 325.24 939.963 325.707 939.63 326.32C939.297 326.933 939.13 327.653 939.13 328.48C939.13 329.32 939.297 330.053 939.63 330.68C939.963 331.293 940.41 331.767 940.97 332.1C941.53 332.42 942.15 332.58 942.83 332.58C943.51 332.58 944.13 332.42 944.69 332.1C945.263 331.767 945.717 331.293 946.05 330.68C946.383 330.053 946.55 329.327 946.55 328.5ZM956.906 322.84C957.732 322.84 958.479 323.02 959.146 323.38C959.812 323.727 960.332 324.253 960.706 324.96C961.092 325.667 961.286 326.527 961.286 327.54V334H959.486V327.8C959.486 326.707 959.212 325.873 958.666 325.3C958.119 324.713 957.372 324.42 956.426 324.42C955.466 324.42 954.699 324.72 954.126 325.32C953.566 325.92 953.286 326.793 953.286 327.94V334H951.466V319.2H953.286V324.6C953.646 324.04 954.139 323.607 954.766 323.3C955.406 322.993 956.119 322.84 956.906 322.84ZM966.479 324.54V331C966.479 331.533 966.592 331.913 966.819 332.14C967.045 332.353 967.439 332.46 967.999 332.46H969.339V334H967.699C966.685 334 965.925 333.767 965.419 333.3C964.912 332.833 964.659 332.067 964.659 331V324.54H963.239V323.04H964.659V320.28H966.479V323.04H969.339V324.54H966.479ZM983.276 319.92C984.623 319.92 985.823 320.227 986.876 320.84C987.929 321.44 988.743 322.28 989.316 323.36C989.903 324.427 990.196 325.647 990.196 327.02C990.196 328.393 989.903 329.62 989.316 330.7C988.743 331.767 987.929 332.607 986.876 333.22C985.823 333.82 984.623 334.12 983.276 334.12C981.916 334.12 980.709 333.82 979.656 333.22C978.603 332.607 977.783 331.767 977.196 330.7C976.609 329.62 976.316 328.393 976.316 327.02C976.316 325.647 976.609 324.427 977.196 323.36C977.783 322.28 978.603 321.44 979.656 320.84C980.709 320.227 981.916 319.92 983.276 319.92ZM983.276 320.72C982.036 320.72 980.956 320.987 980.036 321.52C979.116 322.04 978.409 322.773 977.916 323.72C977.423 324.667 977.176 325.767 977.176 327.02C977.176 328.26 977.423 329.36 977.916 330.32C978.409 331.267 979.116 332.007 980.036 332.54C980.956 333.073 982.036 333.34 983.276 333.34C984.503 333.34 985.569 333.073 986.476 332.54C987.396 332.007 988.103 331.267 988.596 330.32C989.089 329.36 989.336 328.26 989.336 327.02C989.336 325.767 989.089 324.667 988.596 323.72C988.103 322.773 987.396 322.04 986.476 321.52C985.569 320.987 984.503 320.72 983.276 320.72ZM983.236 322.38C982.436 322.38 981.703 322.567 981.036 322.94C980.383 323.313 979.863 323.853 979.476 324.56C979.089 325.253 978.896 326.067 978.896 327C978.896 327.933 979.089 328.753 979.476 329.46C979.863 330.153 980.383 330.693 981.036 331.08C981.703 331.453 982.436 331.64 983.236 331.64C984.236 331.64 985.103 331.373 985.836 330.84C986.569 330.293 987.069 329.567 987.336 328.66H985.656C985.256 329.767 984.449 330.32 983.236 330.32C982.436 330.32 981.783 330.033 981.276 329.46C980.769 328.887 980.516 328.073 980.516 327.02C980.516 325.953 980.769 325.133 981.276 324.56C981.783 323.987 982.436 323.7 983.236 323.7C983.823 323.7 984.329 323.847 984.756 324.14C985.183 324.42 985.483 324.827 985.656 325.36H987.336C987.083 324.413 986.589 323.68 985.856 323.16C985.123 322.64 984.249 322.38 983.236 322.38ZM997.368 327.02C997.368 325.66 997.674 324.44 998.288 323.36C998.901 322.267 999.734 321.413 1000.79 320.8C1001.85 320.187 1003.03 319.88 1004.33 319.88C1005.85 319.88 1007.17 320.247 1008.31 320.98C1009.44 321.713 1010.27 322.753 1010.79 324.1H1008.61C1008.22 323.26 1007.66 322.613 1006.93 322.16C1006.21 321.707 1005.34 321.48 1004.33 321.48C1003.35 321.48 1002.48 321.707 1001.71 322.16C1000.93 322.613 1000.33 323.26 999.888 324.1C999.448 324.927 999.228 325.9 999.228 327.02C999.228 328.127 999.448 329.1 999.888 329.94C1000.33 330.767 1000.93 331.407 1001.71 331.86C1002.48 332.313 1003.35 332.54 1004.33 332.54C1005.34 332.54 1006.21 332.32 1006.93 331.88C1007.66 331.427 1008.22 330.78 1008.61 329.94H1010.79C1010.27 331.273 1009.44 332.307 1008.31 333.04C1007.17 333.76 1005.85 334.12 1004.33 334.12C1003.03 334.12 1001.85 333.82 1000.79 333.22C999.734 332.607 998.901 331.76 998.288 330.68C997.674 329.6 997.368 328.38 997.368 327.02ZM1015.32 324.82C1015.64 324.193 1016.09 323.707 1016.68 323.36C1017.28 323.013 1018 322.84 1018.86 322.84V324.72H1018.38C1016.34 324.72 1015.32 325.827 1015.32 328.04V334H1013.5V323.04H1015.32V324.82ZM1030.96 328.1C1030.96 328.447 1030.94 328.813 1030.9 329.2H1022.14C1022.2 330.28 1022.57 331.127 1023.24 331.74C1023.92 332.34 1024.74 332.64 1025.7 332.64C1026.48 332.64 1027.14 332.46 1027.66 332.1C1028.19 331.727 1028.56 331.233 1028.78 330.62H1030.74C1030.44 331.673 1029.86 332.533 1028.98 333.2C1028.1 333.853 1027 334.18 1025.7 334.18C1024.66 334.18 1023.72 333.947 1022.9 333.48C1022.08 333.013 1021.44 332.353 1020.98 331.5C1020.51 330.633 1020.28 329.633 1020.28 328.5C1020.28 327.367 1020.5 326.373 1020.96 325.52C1021.41 324.667 1022.04 324.013 1022.86 323.56C1023.68 323.093 1024.63 322.86 1025.7 322.86C1026.74 322.86 1027.66 323.087 1028.46 323.54C1029.26 323.993 1029.87 324.62 1030.3 325.42C1030.74 326.207 1030.96 327.1 1030.96 328.1ZM1029.08 327.72C1029.08 327.027 1028.92 326.433 1028.62 325.94C1028.31 325.433 1027.89 325.053 1027.36 324.8C1026.84 324.533 1026.26 324.4 1025.62 324.4C1024.7 324.4 1023.91 324.693 1023.26 325.28C1022.62 325.867 1022.25 326.68 1022.16 327.72H1029.08ZM1037.24 334.18C1036.4 334.18 1035.65 334.04 1034.98 333.76C1034.31 333.467 1033.79 333.067 1033.4 332.56C1033.01 332.04 1032.8 331.447 1032.76 330.78H1034.64C1034.69 331.327 1034.95 331.773 1035.4 332.12C1035.87 332.467 1036.47 332.64 1037.22 332.64C1037.91 332.64 1038.46 332.487 1038.86 332.18C1039.26 331.873 1039.46 331.487 1039.46 331.02C1039.46 330.54 1039.25 330.187 1038.82 329.96C1038.39 329.72 1037.73 329.487 1036.84 329.26C1036.03 329.047 1035.36 328.833 1034.84 328.62C1034.33 328.393 1033.89 328.067 1033.52 327.64C1033.16 327.2 1032.98 326.627 1032.98 325.92C1032.98 325.36 1033.15 324.847 1033.48 324.38C1033.81 323.913 1034.29 323.547 1034.9 323.28C1035.51 323 1036.21 322.86 1037 322.86C1038.21 322.86 1039.19 323.167 1039.94 323.78C1040.69 324.393 1041.09 325.233 1041.14 326.3H1039.32C1039.28 325.727 1039.05 325.267 1038.62 324.92C1038.21 324.573 1037.65 324.4 1036.94 324.4C1036.29 324.4 1035.77 324.54 1035.38 324.82C1034.99 325.1 1034.8 325.467 1034.8 325.92C1034.8 326.28 1034.91 326.58 1035.14 326.82C1035.38 327.047 1035.67 327.233 1036.02 327.38C1036.38 327.513 1036.87 327.667 1037.5 327.84C1038.29 328.053 1038.93 328.267 1039.42 328.48C1039.91 328.68 1040.33 328.987 1040.68 329.4C1041.04 329.813 1041.23 330.353 1041.24 331.02C1041.24 331.62 1041.07 332.16 1040.74 332.64C1040.41 333.12 1039.93 333.5 1039.32 333.78C1038.72 334.047 1038.03 334.18 1037.24 334.18ZM1046.03 324.54V331C1046.03 331.533 1046.14 331.913 1046.37 332.14C1046.6 332.353 1046.99 332.46 1047.55 332.46H1048.89V334H1047.25C1046.24 334 1045.48 333.767 1044.97 333.3C1044.46 332.833 1044.21 332.067 1044.21 331V324.54H1042.79V323.04H1044.21V320.28H1046.03V323.04H1048.89V324.54H1046.03ZM1055.91 332.54C1057.6 331.18 1058.93 330.067 1059.89 329.2C1060.85 328.32 1061.65 327.407 1062.31 326.46C1062.97 325.5 1063.31 324.56 1063.31 323.64C1063.31 322.773 1063.09 322.093 1062.67 321.6C1062.25 321.093 1061.58 320.84 1060.65 320.84C1059.74 320.84 1059.03 321.127 1058.53 321.7C1058.03 322.26 1057.77 323.013 1057.73 323.96H1055.97C1056.02 322.467 1056.47 321.313 1057.33 320.5C1058.18 319.687 1059.28 319.28 1060.63 319.28C1062 319.28 1063.09 319.66 1063.89 320.42C1064.7 321.18 1065.11 322.227 1065.11 323.56C1065.11 324.667 1064.77 325.747 1064.11 326.8C1063.45 327.84 1062.71 328.76 1061.87 329.56C1061.03 330.347 1059.95 331.267 1058.65 332.32H1065.53V333.84H1055.91V332.54ZM1067.63 326.62C1067.63 324.327 1068 322.54 1068.75 321.26C1069.5 319.967 1070.8 319.32 1072.67 319.32C1074.52 319.32 1075.82 319.967 1076.57 321.26C1077.32 322.54 1077.69 324.327 1077.69 326.62C1077.69 328.953 1077.32 330.767 1076.57 332.06C1075.82 333.353 1074.52 334 1072.67 334C1070.8 334 1069.5 333.353 1068.75 332.06C1068 330.767 1067.63 328.953 1067.63 326.62ZM1075.89 326.62C1075.89 325.46 1075.81 324.48 1075.65 323.68C1075.5 322.867 1075.19 322.213 1074.71 321.72C1074.24 321.227 1073.56 320.98 1072.67 320.98C1071.76 320.98 1071.07 321.227 1070.59 321.72C1070.12 322.213 1069.81 322.867 1069.65 323.68C1069.5 324.48 1069.43 325.46 1069.43 326.62C1069.43 327.82 1069.5 328.827 1069.65 329.64C1069.81 330.453 1070.12 331.107 1070.59 331.6C1071.07 332.093 1071.76 332.34 1072.67 332.34C1073.56 332.34 1074.24 332.093 1074.71 331.6C1075.19 331.107 1075.5 330.453 1075.65 329.64C1075.81 328.827 1075.89 327.82 1075.89 326.62ZM1079.97 332.54C1081.66 331.18 1082.99 330.067 1083.95 329.2C1084.91 328.32 1085.72 327.407 1086.37 326.46C1087.04 325.5 1087.37 324.56 1087.37 323.64C1087.37 322.773 1087.16 322.093 1086.73 321.6C1086.32 321.093 1085.64 320.84 1084.71 320.84C1083.8 320.84 1083.1 321.127 1082.59 321.7C1082.1 322.26 1081.83 323.013 1081.79 323.96H1080.03C1080.08 322.467 1080.54 321.313 1081.39 320.5C1082.24 319.687 1083.34 319.28 1084.69 319.28C1086.06 319.28 1087.15 319.66 1087.95 320.42C1088.76 321.18 1089.17 322.227 1089.17 323.56C1089.17 324.667 1088.84 325.747 1088.17 326.8C1087.52 327.84 1086.77 328.76 1085.93 329.56C1085.09 330.347 1084.02 331.267 1082.71 332.32H1089.59V333.84H1079.97V332.54ZM1091.65 323.18C1091.75 321.953 1092.22 320.993 1093.07 320.3C1093.93 319.607 1095.03 319.26 1096.39 319.26C1097.3 319.26 1098.08 319.427 1098.73 319.76C1099.4 320.08 1099.9 320.52 1100.23 321.08C1100.58 321.64 1100.75 322.273 1100.75 322.98C1100.75 323.807 1100.51 324.52 1100.03 325.12C1099.57 325.72 1098.95 326.107 1098.19 326.28V326.38C1099.06 326.593 1099.75 327.013 1100.25 327.64C1100.76 328.267 1101.01 329.087 1101.01 330.1C1101.01 330.86 1100.84 331.547 1100.49 332.16C1100.15 332.76 1099.63 333.233 1098.93 333.58C1098.24 333.927 1097.41 334.1 1096.43 334.1C1095.02 334.1 1093.86 333.733 1092.95 333C1092.05 332.253 1091.54 331.2 1091.43 329.84H1093.19C1093.29 330.64 1093.61 331.293 1094.17 331.8C1094.73 332.307 1095.48 332.56 1096.41 332.56C1097.35 332.56 1098.05 332.32 1098.53 331.84C1099.03 331.347 1099.27 330.713 1099.27 329.94C1099.27 328.94 1098.94 328.22 1098.27 327.78C1097.61 327.34 1096.6 327.12 1095.25 327.12H1094.79V325.6H1095.27C1096.5 325.587 1097.43 325.387 1098.05 325C1098.68 324.6 1098.99 323.987 1098.99 323.16C1098.99 322.453 1098.76 321.887 1098.29 321.46C1097.84 321.033 1097.19 320.82 1096.33 320.82C1095.51 320.82 1094.84 321.033 1094.33 321.46C1093.83 321.887 1093.53 322.46 1093.43 323.18H1091.65Z" fill="black"/>
</svg>
