<svg width="48" height="48" viewBox="0 0 48 48" fill="none" xmlns="http://www.w3.org/2000/svg">
<rect width="48" height="48" rx="24" fill="#ABAEB0"/>
<path fill-rule="evenodd" clip-rule="evenodd" d="M16.4645 27.4645C17.4021 26.5268 18.6739 26 20 26H28C29.3261 26 30.5979 26.5268 31.5355 27.4645C32.4732 28.4021 33 29.6739 33 31V33C33 33.5523 32.5523 34 32 34C31.4477 34 31 33.5523 31 33V31C31 30.2044 30.6839 29.4413 30.1213 28.8787C29.5587 28.3161 28.7956 28 28 28H20C19.2044 28 18.4413 28.3161 17.8787 28.8787C17.3161 29.4413 17 30.2044 17 31V33C17 33.5523 16.5523 34 16 34C15.4477 34 15 33.5523 15 33V31C15 29.6739 15.5268 28.4021 16.4645 27.4645Z" fill="white"/>
<path fill-rule="evenodd" clip-rule="evenodd" d="M24 16C22.3431 16 21 17.3431 21 19C21 20.6569 22.3431 22 24 22C25.6569 22 27 20.6569 27 19C27 17.3431 25.6569 16 24 16ZM19 19C19 16.2386 21.2386 14 24 14C26.7614 14 29 16.2386 29 19C29 21.7614 26.7614 24 24 24C21.2386 24 19 21.7614 19 19Z" fill="white"/>
</svg>
