<svg width="40" height="40" viewBox="0 0 40 40" fill="none" xmlns="http://www.w3.org/2000/svg">
<g id="Phosphor Icons Regular / ChatDots">
<path id="Vector (Stroke)" fill-rule="evenodd" clip-rule="evenodd" d="M4.48227 8.23223C4.95111 7.76339 5.587 7.5 6.25004 7.5H33.75C34.4131 7.5 35.049 7.76339 35.5178 8.23223C35.9866 8.70108 36.25 9.33696 36.25 10V30C36.25 30.663 35.9866 31.2989 35.5178 31.7678C35.049 32.2366 34.4131 32.5 33.75 32.5H12.891C12.8985 32.5 12.9057 32.4973 12.9114 32.4924L12.891 32.4687L12.0938 31.5469L12.8955 32.5059L7.8486 36.7247L7.84383 36.7287C7.47961 37.03 7.03741 37.222 6.56851 37.2822C6.0996 37.3425 5.62324 37.2685 5.19468 37.0689C4.76612 36.8694 4.40292 36.5524 4.14723 36.1548C3.89153 35.7571 3.75382 35.2951 3.75008 34.8224L3.75 34.8125L3.75004 10C3.75004 9.33696 4.01343 8.70107 4.48227 8.23223ZM11.2854 30.5934C11.7324 30.2107 12.3016 30.0002 12.8904 30H33.75V10L6.25004 10V34.8025L11.2854 30.5934Z" fill="black"/>
<path id="Vector" d="M20 21.875C21.0355 21.875 21.875 21.0355 21.875 20C21.875 18.9645 21.0355 18.125 20 18.125C18.9645 18.125 18.125 18.9645 18.125 20C18.125 21.0355 18.9645 21.875 20 21.875Z" fill="black"/>
<path id="Vector_2" d="M12.5 21.875C13.5355 21.875 14.375 21.0355 14.375 20C14.375 18.9645 13.5355 18.125 12.5 18.125C11.4645 18.125 10.625 18.9645 10.625 20C10.625 21.0355 11.4645 21.875 12.5 21.875Z" fill="black"/>
<path id="Vector_3" d="M27.5 21.875C28.5355 21.875 29.375 21.0355 29.375 20C29.375 18.9645 28.5355 18.125 27.5 18.125C26.4645 18.125 25.625 18.9645 25.625 20C25.625 21.0355 26.4645 21.875 27.5 21.875Z" fill="black"/>
</g>
</svg>
