<svg width="40" height="40" viewBox="0 0 40 40" fill="none" xmlns="http://www.w3.org/2000/svg">
<g id="Phosphor Icons Regular / Phone">
<path id="Vector (Stroke)" fill-rule="evenodd" clip-rule="evenodd" d="M12.638 3.82269C13.1783 3.75338 13.7264 3.86354 14.1979 4.13623C14.6673 4.40771 15.035 4.82528 15.2448 5.32514L18.3809 12.6427C18.3814 12.6438 18.3818 12.6448 18.3823 12.6458C18.5446 13.0211 18.6125 13.4304 18.5799 13.838C18.5472 14.2467 18.4145 14.6411 18.1934 14.9865L18.1852 14.9993L15.5807 18.9605C16.743 21.3578 18.6817 23.2918 21.0818 24.4484L21.0869 24.445L24.9901 21.8377C25.3365 21.6038 25.7363 21.4611 26.1525 21.4227C26.5688 21.3844 26.9879 21.4517 27.3712 21.6184C27.3728 21.6191 27.3743 21.6197 27.3759 21.6204L34.6755 24.7555C35.1751 24.9654 35.5925 25.3329 35.8638 25.8022C36.1365 26.2737 36.2467 26.8218 36.1774 27.362C35.907 29.4725 34.8768 31.4121 33.2797 32.818C31.6826 34.2238 29.628 34.9996 27.5003 35.0001C21.5329 35.0001 15.8097 32.6295 11.5901 28.41C7.37053 24.1904 5 18.4674 5 12.5001C5.00048 10.3723 5.77622 8.31742 7.18208 6.72032C8.58784 5.12331 10.5277 4.09316 12.638 3.82269ZM14.4531 19.5001L13.3256 20.0397C13.141 19.6539 13.0584 19.2273 13.0858 18.8005C13.1131 18.3738 13.2495 17.9612 13.4818 17.6022L13.4868 17.5946L16.0878 13.6385L16.0854 13.6331L12.9448 6.30495C11.4417 6.50033 10.0603 7.23423 9.05863 8.37215C8.05451 9.51287 7.50041 10.9804 7.5 12.5001M14.4531 19.5001L13.3281 20.0448C14.7375 22.9553 17.0909 25.3027 20.005 26.7046L20.0119 26.7079C20.4043 26.8937 20.8383 26.9741 21.2711 26.9412C21.7029 26.9085 22.1187 26.7641 22.4779 26.5223C22.4788 26.5217 22.4798 26.5211 22.4807 26.5204L26.3818 23.9145L33.6942 27.0549L33.6962 27.0557C33.5008 28.5588 32.7658 29.9398 31.6279 30.9414C30.4872 31.9455 29.0197 32.4996 27.5 32.5001M7.5 12.5001C7.50007 17.8043 9.6072 22.8915 13.3579 26.6422C17.1085 30.3928 22.1958 32.5 27.5 32.5001" fill="black"/>
</g>
</svg>
