<svg width="30" height="30" viewBox="0 0 30 30" fill="none" xmlns="http://www.w3.org/2000/svg">
<g id="Phosphor Icons Regular / FunnelSimple">
<path id="Vector (Stroke)" fill-rule="evenodd" clip-rule="evenodd" d="M6.5625 15C6.5625 14.4822 6.98223 14.0625 7.5 14.0625H22.5C23.0178 14.0625 23.4375 14.4822 23.4375 15C23.4375 15.5178 23.0178 15.9375 22.5 15.9375H7.5C6.98223 15.9375 6.5625 15.5178 6.5625 15Z" fill="black"/>
<path id="Vector (Stroke)_2" fill-rule="evenodd" clip-rule="evenodd" d="M1.875 9.375C1.875 8.85723 2.29473 8.4375 2.8125 8.4375H27.1875C27.7053 8.4375 28.125 8.85723 28.125 9.375C28.125 9.89277 27.7053 10.3125 27.1875 10.3125H2.8125C2.29473 10.3125 1.875 9.89277 1.875 9.375Z" fill="black"/>
<path id="Vector (Stroke)_3" fill-rule="evenodd" clip-rule="evenodd" d="M11.25 20.625C11.25 20.1072 11.6697 19.6875 12.1875 19.6875H17.8125C18.3303 19.6875 18.75 20.1072 18.75 20.625C18.75 21.1428 18.3303 21.5625 17.8125 21.5625H12.1875C11.6697 21.5625 11.25 21.1428 11.25 20.625Z" fill="black"/>
</g>
</svg>
