<svg width="40" height="40" viewBox="0 0 40 40" fill="none" xmlns="http://www.w3.org/2000/svg">
<g id="Phosphor Icons Regular / InstagramLogo">
<path id="Vector (Stroke)" fill-rule="evenodd" clip-rule="evenodd" d="M20 15C17.2386 15 15 17.2386 15 20C15 22.7614 17.2386 25 20 25C22.7614 25 25 22.7614 25 20C25 17.2386 22.7614 15 20 15ZM12.5 20C12.5 15.8579 15.8579 12.5 20 12.5C24.1421 12.5 27.5 15.8579 27.5 20C27.5 24.1421 24.1421 27.5 20 27.5C15.8579 27.5 12.5 24.1421 12.5 20Z" fill="black"/>
<path id="Vector (Stroke)_2" fill-rule="evenodd" clip-rule="evenodd" d="M13.125 6.875C9.67322 6.875 6.875 9.67322 6.875 13.125V26.875C6.875 30.3268 9.67322 33.125 13.125 33.125H26.875C30.3268 33.125 33.125 30.3268 33.125 26.875V13.125C33.125 9.67322 30.3268 6.875 26.875 6.875H13.125ZM4.375 13.125C4.375 8.29251 8.29251 4.375 13.125 4.375H26.875C31.7075 4.375 35.625 8.29251 35.625 13.125V26.875C35.625 31.7075 31.7075 35.625 26.875 35.625H13.125C8.29251 35.625 4.375 31.7075 4.375 26.875V13.125Z" fill="black"/>
<path id="Vector" d="M28.125 13.75C29.1605 13.75 30 12.9105 30 11.875C30 10.8395 29.1605 10 28.125 10C27.0895 10 26.25 10.8395 26.25 11.875C26.25 12.9105 27.0895 13.75 28.125 13.75Z" fill="black"/>
</g>
</svg>
