<svg width="40" height="40" viewBox="0 0 40 40" fill="none" xmlns="http://www.w3.org/2000/svg">
<g id="Phosphor Icons Regular / PaperPlaneTilt">
<path id="Vector (Stroke)" fill-rule="evenodd" clip-rule="evenodd" d="M32.5159 4.40754C32.9416 4.2844 33.3926 4.27735 33.822 4.38719C34.2538 4.49764 34.6479 4.72221 34.963 5.03735C35.2782 5.35249 35.5027 5.74661 35.6132 6.17839C35.723 6.60784 35.716 7.05882 35.5928 7.48456L27.3937 36.5952C27.3932 36.597 27.3927 36.5988 27.3922 36.6005C27.2561 37.0942 26.9716 37.5343 26.5771 37.861C26.1813 38.189 25.694 38.387 25.1815 38.428C24.6691 38.4689 24.1565 38.351 23.7136 38.0901C23.2738 37.8312 22.924 37.4439 22.7108 36.9804L16.3866 23.6137L3.0199 17.2895C2.55644 17.0764 2.16918 16.7265 1.91024 16.2868C1.64939 15.8438 1.53142 15.3312 1.57242 14.8188C1.61341 14.3064 1.81137 13.8191 2.13932 13.4232C2.46609 13.0288 2.90607 12.7443 3.39973 12.6082C3.40153 12.6077 3.40334 12.6072 3.40514 12.6067L32.5159 4.40754ZM32.8598 5.60933L33.197 6.80664C33.1986 6.80783 33.2005 6.8087 33.2024 6.8092C33.2052 6.8099 33.208 6.80985 33.2107 6.80906L32.8598 5.60933ZM33.1836 6.81675L4.06451 15.0182L4.0819 15.0263L17.4531 21.3526C17.9794 21.5979 18.4024 22.021 18.6478 22.5473L24.9741 35.9185L24.9822 35.9359L24.9847 35.9267L33.1836 6.81675Z" fill="black"/>
<path id="Vector (Stroke)_2" fill-rule="evenodd" clip-rule="evenodd" d="M25.2745 14.7255C25.7627 15.2136 25.7627 16.0051 25.2745 16.4933L18.212 23.5558C17.7239 24.0439 16.9324 24.0439 16.4442 23.5558C15.9561 23.0676 15.9561 22.2761 16.4442 21.788L23.5067 14.7255C23.9949 14.2373 24.7864 14.2373 25.2745 14.7255Z" fill="black"/>
</g>
</svg>
