<svg width="24" height="24" viewBox="0 0 24 24" fill="none" xmlns="http://www.w3.org/2000/svg">
<g id="Fether Icons /phone">
<path id="Vector (Stroke)" fill-rule="evenodd" clip-rule="evenodd" d="M7.78178 3.24169C7.59779 3.08347 7.36255 2.99754 7.1199 2.99993L7.11006 3.00002V2.99997H4.11067C3.97195 3.00015 3.83479 3.02919 3.70789 3.08524C3.5809 3.14133 3.46698 3.22325 3.37338 3.32579C3.27978 3.42832 3.20856 3.54922 3.16425 3.68079C3.12064 3.81027 3.10403 3.9473 3.11543 4.08341C3.42817 7.01497 4.42636 9.83185 6.02934 12.3063L6.0341 12.3136L6.03407 12.3137C7.49067 14.6059 9.43411 16.5494 11.7264 18.006L11.7342 18.0109L11.7342 18.011C14.197 19.6081 16.9997 20.606 19.9176 20.9247C20.0538 20.936 20.1909 20.9192 20.3204 20.8754C20.4523 20.8308 20.5735 20.7591 20.6761 20.665C20.7787 20.5708 20.8605 20.4563 20.9163 20.3287C20.9721 20.2011 21.0006 20.0633 21.0001 19.924L21.0001 19.92V16.92C21.0001 16.9117 21.0002 16.9034 21.0004 16.8952C21.0064 16.65 20.9222 16.4111 20.7636 16.2239C20.6058 16.0377 20.3854 15.9156 20.1439 15.8807C19.111 15.744 18.0967 15.4912 17.1205 15.1269L17.1182 15.126C16.9392 15.0588 16.7447 15.0442 16.5578 15.0841C16.3715 15.1238 16.2005 15.2159 16.0648 15.3494L14.7972 16.6171C14.4788 16.9354 13.9871 17.0018 13.5958 16.7793C10.9357 15.2667 8.73329 13.0643 7.22076 10.4043C6.99825 10.0129 7.06464 9.52118 7.38295 9.20287L8.65059 7.93523C8.78416 7.79954 8.87624 7.62852 8.91596 7.44228C8.95583 7.25529 8.94128 7.0608 8.874 6.88184L8.87316 6.87958C8.50888 5.90337 8.25602 4.88916 8.11936 3.85621C8.08469 3.61738 7.96481 3.3991 7.78178 3.24169ZM7.10563 0.999975C7.83167 0.994138 8.53527 1.25182 9.08586 1.72532C9.63781 2.2 9.99833 2.85919 10.1002 3.58002L10.1015 3.58921L10.1015 3.58922C10.2182 4.47414 10.4346 5.34303 10.7466 6.17933C10.948 6.71588 10.9915 7.29891 10.872 7.85943C10.7523 8.42038 10.4744 8.93528 10.0711 9.34311L10.0672 9.34709L10.0672 9.34708L9.35007 10.0642C10.5259 11.9088 12.0912 13.4741 13.9359 14.65L14.6529 13.9329L14.6569 13.9289C15.0647 13.5256 15.5796 13.2477 16.1406 13.1281C16.7011 13.0085 17.2842 13.052 17.8207 13.2535C18.657 13.5654 19.5259 13.7818 20.4108 13.8986L20.4198 13.8997L20.4197 13.8998C21.1484 14.0026 21.8138 14.3696 22.2895 14.931C22.7623 15.489 23.0149 16.2003 23.0001 16.9312V19.918" fill="black"/>
</g>
</svg>
