<svg width="29" height="29" viewBox="0 0 29 29" fill="none" xmlns="http://www.w3.org/2000/svg">
<g id="Phosphor Icons Regular / MagnifyingGlass">
<path id="Vector (Stroke)" fill-rule="evenodd" clip-rule="evenodd" d="M13.665 5.15625C9.07417 5.15625 5.35254 8.87788 5.35254 13.4688C5.35254 18.0596 9.07417 21.7812 13.665 21.7812C18.2559 21.7812 21.9775 18.0596 21.9775 13.4688C21.9775 8.87788 18.2559 5.15625 13.665 5.15625ZM3.60254 13.4688C3.60254 7.91138 8.10767 3.40625 13.665 3.40625C19.2224 3.40625 23.7275 7.91138 23.7275 13.4688C23.7275 19.0261 19.2224 23.5312 13.665 23.5312C8.10767 23.5312 3.60254 19.0261 3.60254 13.4688Z" fill="black"/>
<path id="Vector (Stroke)_2" fill-rule="evenodd" clip-rule="evenodd" d="M19.5434 19.3469C19.8851 19.0052 20.4391 19.0052 20.7808 19.3469L26.0965 24.6625C26.4382 25.0043 26.4382 25.5583 26.0965 25.9C25.7547 26.2417 25.2007 26.2417 24.859 25.9L19.5434 20.5844C19.2017 20.2426 19.2017 19.6886 19.5434 19.3469Z" fill="black"/>
</g>
</svg>
